<?xml version="1.0" encoding="UTF-8" standalone="no"?>
<!-- Generator: Adobe Illustrator 19.1.0, SVG Export Plug-In . SVG Version: 6.00 Build 0)  -->

<svg
   xmlns:dc="http://purl.org/dc/elements/1.1/"
   xmlns:cc="http://creativecommons.org/ns#"
   xmlns:rdf="http://www.w3.org/1999/02/22-rdf-syntax-ns#"
   xmlns:svg="http://www.w3.org/2000/svg"
   xmlns="http://www.w3.org/2000/svg"
   xmlns:sodipodi="http://sodipodi.sourceforge.net/DTD/sodipodi-0.dtd"
   xmlns:inkscape="http://www.inkscape.org/namespaces/inkscape"
   version="1.1"
   x="0px"
   y="0px"
   viewBox="0 0 45 45"
   xml:space="preserve"
   id="svg2"
   inkscape:version="0.91 r13725"
   sodipodi:docname="card.svg"
   width="45"
   height="45"><metadata
     id="metadata12"><rdf:RDF><cc:Work
         rdf:about=""><dc:format>image/svg+xml</dc:format><dc:type
           rdf:resource="http://purl.org/dc/dcmitype/StillImage" /><dc:title /></cc:Work></rdf:RDF></metadata><defs
     id="defs10" /><sodipodi:namedview
     pagecolor="#ffffff"
     bordercolor="#666666"
     borderopacity="1"
     objecttolerance="10"
     gridtolerance="10"
     guidetolerance="10"
     inkscape:pageopacity="0"
     inkscape:pageshadow="2"
     inkscape:window-width="1855"
     inkscape:window-height="1056"
     id="namedview8"
     showgrid="false"
     inkscape:zoom="9.8333333"
     inkscape:cx="-21.752602"
     inkscape:cy="17.951137"
     inkscape:window-x="65"
     inkscape:window-y="24"
     inkscape:window-maximized="1"
     inkscape:current-layer="pages"
     fit-margin-top="1"
     fit-margin-bottom="1"
     fit-margin-left="4.5"
     fit-margin-right="4.5" /><g
     id="image-multiple"
     transform="translate(0.5,22)"><g
       transform="matrix(-1,0,0,-1,-3.966101,22.067797)"
       id="pages"><path
         id="path3389-6-7-3"
         d="m -28.410167,32.786558 c 0,1.7802 -1.4784,3.225 -3.3,3.225 -1.821602,0 -3.300002,-1.4448 -3.300002,-3.225 0,-1.7802 1.4784,-3.225 3.300002,-3.225 1.8216,0 3.3,1.4448 3.3,3.225 z m 11.672884,-22.606472 -18.000008,0 0,-2.1500001 18.000008,0 z m 0.228814,4.609745 -18.000006,0 0,-2.15 18.000006,0 z m 4.042368,4.19753 -27,0 0,4.3 27,0 z m 4.5,-14.619564 0,34.4 c 0,2.311103 -1.3436662,4.3 -4.5,4.3 l -27,0 c -2.48625,0 -4.5,-1.92425 -4.5,-4.3 l 0,-34.4 c 0,-2.37575 2.01375,-4.3 4.5,-4.3 l 27,0 c 2.4862499,0 4.5,1.92425 4.5,4.3 z m -4.5,34.399564 0,-34.399564 -27,0 0,34.399564 z m -26.998783,-15.536469 -0.04654,-0.03811 3.747834,2.995649 4.124536,-2.956549 10.374548,11.014069 8.826482,-10.986033 z"
         inkscape:connector-curvature="0"
         style="fill:#82878c;fill-opacity:1;stroke:none" /></g></g><g
     id="Layer_1"
     transform="translate(0.5,22)" /></svg>