<?xml version="1.0" encoding="UTF-8" standalone="no"?>
<svg
   xmlns:dc="http://purl.org/dc/elements/1.1/"
   xmlns:cc="http://creativecommons.org/ns#"
   xmlns:rdf="http://www.w3.org/1999/02/22-rdf-syntax-ns#"
   xmlns:svg="http://www.w3.org/2000/svg"
   xmlns="http://www.w3.org/2000/svg"
   xmlns:sodipodi="http://sodipodi.sourceforge.net/DTD/sodipodi-0.dtd"
   xmlns:inkscape="http://www.inkscape.org/namespaces/inkscape"
   height="45"
   viewBox="0 0 45 45"
   width="45"
   id="svg2"
   version="1.1"
   inkscape:version="0.91 r13725"
   sodipodi:docname="slide.svg"
   style="fill:#000000">
  <metadata
     id="metadata12">
    <rdf:RDF>
      <cc:Work
         rdf:about="">
        <dc:format>image/svg+xml</dc:format>
        <dc:type
           rdf:resource="http://purl.org/dc/dcmitype/StillImage" />
        <dc:title />
      </cc:Work>
    </rdf:RDF>
  </metadata>
  <defs
     id="defs10" />
  <sodipodi:namedview
     pagecolor="#ffffff"
     bordercolor="#666666"
     borderopacity="1"
     objecttolerance="10"
     gridtolerance="10"
     guidetolerance="10"
     inkscape:pageopacity="0"
     inkscape:pageshadow="2"
     inkscape:window-width="1855"
     inkscape:window-height="1056"
     id="namedview8"
     showgrid="false"
     fit-margin-left="1"
     fit-margin-right="1"
     fit-margin-bottom="8.5"
     fit-margin-top="8.5"
     inkscape:zoom="9.8333333"
     inkscape:cx="-5.8983052"
     inkscape:cy="15.5"
     inkscape:window-x="65"
     inkscape:window-y="24"
     inkscape:window-maximized="1"
     inkscape:current-layer="svg2" />
  <path
     d="m 1,8.5 3.9090909,0 0,28 L 1,36.5 Z m 7.8181818,0 3.9090912,0 0,28 -3.9090912,0 z m 33.2272732,0 -23.454546,0 c -1.075,0 -1.954545,0.9 -1.954545,2 l 0,24 c 0,1.1 0.879545,2 1.954545,2 l 23.454546,0 C 43.120455,36.5 44,35.6 44,34.5 l 0,-24 c 0,-1.1 -0.879545,-2 -1.954545,-2 z m -21.5,24 4.886363,-6.3 3.498637,4.3 4.886363,-6.44 6.274091,8.44 -19.545454,0 z"
     id="path6"
     style="fill:#82878c;fill-opacity:1;stroke:none"
     inkscape:connector-curvature="0" />
</svg>
