<?xml version="1.0" encoding="UTF-8" standalone="no"?>
<svg
   xmlns:dc="http://purl.org/dc/elements/1.1/"
   xmlns:cc="http://creativecommons.org/ns#"
   xmlns:rdf="http://www.w3.org/1999/02/22-rdf-syntax-ns#"
   xmlns:svg="http://www.w3.org/2000/svg"
   xmlns="http://www.w3.org/2000/svg"
   xmlns:sodipodi="http://sodipodi.sourceforge.net/DTD/sodipodi-0.dtd"
   xmlns:inkscape="http://www.inkscape.org/namespaces/inkscape"
   height="45"
   viewBox="0 0 22.5 22.5"
   width="45"
   id="svg2"
   version="1.1"
   inkscape:version="0.91 r13725"
   sodipodi:docname="1of2.svg"
   style="fill:#000000">
  <metadata
     id="metadata12">
    <rdf:RDF>
      <cc:Work
         rdf:about="">
        <dc:format>image/svg+xml</dc:format>
        <dc:type
           rdf:resource="http://purl.org/dc/dcmitype/StillImage" />
        <dc:title />
      </cc:Work>
    </rdf:RDF>
  </metadata>
  <defs
     id="defs10" />
  <sodipodi:namedview
     pagecolor="#ffffff"
     bordercolor="#666666"
     borderopacity="1"
     objecttolerance="10"
     gridtolerance="10"
     guidetolerance="10"
     inkscape:pageopacity="0"
     inkscape:pageshadow="2"
     inkscape:window-width="1855"
     inkscape:window-height="1056"
     id="namedview8"
     showgrid="false"
     fit-margin-left="2"
     fit-margin-right="2"
     fit-margin-top="6.5"
     fit-margin-bottom="6.5"
     inkscape:zoom="13.906433"
     inkscape:cx="6.8887714"
     inkscape:cy="20.653841"
     inkscape:window-x="65"
     inkscape:window-y="24"
     inkscape:window-maximized="1"
     inkscape:current-layer="svg2" />
  <path
     style="fill:#d3d4d6;fill-opacity:1;stroke:none"
     d="m 1,3.25 10.678685,0 0,13 L 1,16.25 Z"
     id="rect4163"
     inkscape:connector-curvature="0"
     sodipodi:nodetypes="ccccc" />
  <path
     style="fill:#82878c;fill-opacity:1"
     d="m 10.121269,4.25 -7.567338,0 C 2.137327,4.25 1.7964693,4.7 1.7964693,5.2499999 l 0,9.0000001 c 0,0.55 0.3408577,1 0.7574617,1 l 7.567338,0 c 0.416604,0 0.757462,-0.45 0.757462,-1 l 0,-9.0000001 C 10.878731,4.7 10.537873,4.25 10.121269,4.25 Z"
     id="path4144"
     inkscape:connector-curvature="0"
     sodipodi:nodetypes="sssssssss" />
  <path
     style="fill:#82878c;fill-opacity:1"
     d="m 20.716219,4.2499995 -7.567337,0 c -0.416604,0 -0.757462,0.4500001 -0.757462,1 l 0,9.0000005 c 0,0.55 0.340858,1 0.757462,1 l 7.567337,0 c 0.416604,0 0.757462,-0.45 0.757462,-1 l 0,-9.0000005 c 0,-0.5499999 -0.340858,-1 -0.757462,-1 z"
     id="path4144-5"
     inkscape:connector-curvature="0"
     sodipodi:nodetypes="sssssssss" />
  <path
     d="m 10.771342,17.170732 0,1.435976 -8.814025,0 0,-1.435976 L 1,17.170732 1,21 l 0.957317,0 0,-1.435975 8.814025,0 0,1.435975 0.957317,0 0,-3.829268 z"
     id="path6-3"
     inkscape:connector-curvature="0"
     sodipodi:nodetypes="ccccccccccccc"
     style="fill:#696e72;fill-opacity:1" />
</svg>
