<?xml version="1.0" encoding="UTF-8" standalone="no"?>
<svg
   xmlns:dc="http://purl.org/dc/elements/1.1/"
   xmlns:cc="http://creativecommons.org/ns#"
   xmlns:rdf="http://www.w3.org/1999/02/22-rdf-syntax-ns#"
   xmlns:svg="http://www.w3.org/2000/svg"
   xmlns="http://www.w3.org/2000/svg"
   xmlns:sodipodi="http://sodipodi.sourceforge.net/DTD/sodipodi-0.dtd"
   xmlns:inkscape="http://www.inkscape.org/namespaces/inkscape"
   height="45"
   viewBox="0 0 22.5 22.5"
   width="45"
   id="svg2"
   version="1.1"
   inkscape:version="0.91 r13725"
   sodipodi:docname="1of4.svg"
   style="fill:#000000">
  <metadata
     id="metadata12">
    <rdf:RDF>
      <cc:Work
         rdf:about="">
        <dc:format>image/svg+xml</dc:format>
        <dc:type
           rdf:resource="http://purl.org/dc/dcmitype/StillImage" />
        <dc:title />
      </cc:Work>
    </rdf:RDF>
  </metadata>
  <defs
     id="defs10" />
  <sodipodi:namedview
     pagecolor="#ffffff"
     bordercolor="#666666"
     borderopacity="1"
     objecttolerance="10"
     gridtolerance="10"
     guidetolerance="10"
     inkscape:pageopacity="0"
     inkscape:pageshadow="2"
     inkscape:window-width="1855"
     inkscape:window-height="1056"
     id="namedview8"
     showgrid="false"
     fit-margin-left="2"
     fit-margin-right="2"
     fit-margin-top="6.5"
     fit-margin-bottom="6.5"
     inkscape:zoom="6.9532168"
     inkscape:cx="43.066382"
     inkscape:cy="-0.22276823"
     inkscape:window-x="65"
     inkscape:window-y="24"
     inkscape:window-maximized="1"
     inkscape:current-layer="svg2" />
  <path
     style="fill:#d3d4d6;fill-opacity:1;stroke:none"
     d="m 1,3.25 5.3905494,0 0,13 L 1,16.25 Z"
     id="rect4163"
     inkscape:connector-curvature="0"
     sodipodi:nodetypes="ccccc" />
  <path
     style="fill:#82878c;fill-opacity:1"
     d="m 4.8263158,4.25 -2.2723848,0 C 2.137327,4.25 1.7964693,4.7 1.7964693,5.2499999 l 0,9.0000001 c 0,0.55 0.3408577,1 0.7574617,1 l 2.2723848,0 c 0.4166039,0 0.7574617,-0.45 0.7574617,-1 l 0,-9.0000001 C 5.5837775,4.7 5.2429197,4.25 4.8263158,4.25 Z"
     id="path4144"
     inkscape:connector-curvature="0"
     sodipodi:nodetypes="sssssssss" />
  <path
     style="fill:#82878c;fill-opacity:1"
     d="m 15.430778,4.25 -2.272384,0 c -0.416605,0 -0.757462,0.45 -0.757462,0.9999999 l 0,9.0000001 c 0,0.55 0.340857,1 0.757462,1 l 2.272384,0 c 0.416604,0 0.757462,-0.45 0.757462,-1 l 0,-9.0000001 C 16.18824,4.7 15.847382,4.25 15.430778,4.25 Z"
     id="path4142"
     inkscape:connector-curvature="0"
     sodipodi:nodetypes="sssssssss" />
  <path
     style="fill:#82878c;fill-opacity:1"
     d="m 10.128547,4.25 -2.2723846,0 C 7.4395585,4.25 7.0987009,4.7 7.0987009,5.2499999 l 0,9.0000001 c 0,0.55 0.3408576,1 0.7574615,1 l 2.2723846,0 c 0.416604,0 0.757463,-0.45 0.757463,-1 l 0,-9.0000001 C 10.88601,4.7 10.545151,4.25 10.128547,4.25 Z"
     id="path6"
     inkscape:connector-curvature="0"
     sodipodi:nodetypes="sssssssss" />
  <path
     style="fill:#82878c;fill-opacity:1"
     d="m 20.742539,4.2499998 -2.272385,0 c -0.416605,0 -0.757462,0.45 -0.757462,1 l 0,9.0000002 c 0,0.55 0.340857,1 0.757462,1 l 2.272385,0 C 21.159143,15.25 21.5,14.8 21.5,14.25 l 0,-9.0000002 c 0,-0.55 -0.340857,-1 -0.757461,-1 z"
     id="path4142-6"
     inkscape:connector-curvature="0"
     sodipodi:nodetypes="sssssssss" />
  <path
     d="m 5.5213415,17.170732 0,1.435976 -3.5640245,0 0,-1.435976 L 1,17.170732 1,21 l 0.957317,0 0,-1.435975 3.5640245,0 0,1.435975 0.957317,0 0,-3.829268 z"
     id="path6-3"
     inkscape:connector-curvature="0"
     sodipodi:nodetypes="ccccccccccccc"
     style="fill:#696e72;fill-opacity:1" />
</svg>
