<?xml version="1.0" encoding="UTF-8" standalone="no"?>
<svg
   xmlns:dc="http://purl.org/dc/elements/1.1/"
   xmlns:cc="http://creativecommons.org/ns#"
   xmlns:rdf="http://www.w3.org/1999/02/22-rdf-syntax-ns#"
   xmlns:svg="http://www.w3.org/2000/svg"
   xmlns="http://www.w3.org/2000/svg"
   xmlns:sodipodi="http://sodipodi.sourceforge.net/DTD/sodipodi-0.dtd"
   xmlns:inkscape="http://www.inkscape.org/namespaces/inkscape"
   height="45"
   viewBox="0 0 22.5 22.5"
   width="45"
   id="svg2"
   version="1.1"
   inkscape:version="0.91 r13725"
   sodipodi:docname="2of3.svg"
   style="fill:#000000">
  <metadata
     id="metadata12">
    <rdf:RDF>
      <cc:Work
         rdf:about="">
        <dc:format>image/svg+xml</dc:format>
        <dc:type
           rdf:resource="http://purl.org/dc/dcmitype/StillImage" />
        <dc:title />
      </cc:Work>
    </rdf:RDF>
  </metadata>
  <defs
     id="defs10" />
  <sodipodi:namedview
     pagecolor="#ffffff"
     bordercolor="#666666"
     borderopacity="1"
     objecttolerance="10"
     gridtolerance="10"
     guidetolerance="10"
     inkscape:pageopacity="0"
     inkscape:pageshadow="2"
     inkscape:window-width="1855"
     inkscape:window-height="1056"
     id="namedview8"
     showgrid="false"
     fit-margin-left="2"
     fit-margin-right="2"
     fit-margin-top="6.5"
     fit-margin-bottom="6.5"
     inkscape:zoom="6.9532168"
     inkscape:cx="28.162755"
     inkscape:cy="16.756494"
     inkscape:window-x="65"
     inkscape:window-y="24"
     inkscape:window-maximized="1"
     inkscape:current-layer="svg2" />
  <path
     style="fill:#d3d4d6;fill-opacity:1;stroke:none"
     d="m 1,3.25 14.394673,0 0,13 L 1,16.25 Z"
     id="rect4163"
     inkscape:connector-curvature="0"
     sodipodi:nodetypes="ccccc" />
  <path
     style="fill:#82878c;fill-opacity:1"
     d="m 6.0864661,4.25 -3.0827067,0 C 2.4385965,4.25 1.9761905,4.7 1.9761905,5.2499999 l 0,9.0000001 c 0,0.55 0.462406,1 1.0275689,1 l 3.0827067,0 c 0.565163,0 1.027569,-0.45 1.027569,-1 l 0,-9.0000001 C 7.1140351,4.7 6.6516291,4.25 6.0864661,4.25 Z"
     id="path4144"
     inkscape:connector-curvature="0"
     sodipodi:nodetypes="sssssssss" />
  <path
     style="fill:#82878c;fill-opacity:1"
     d="m 20.472431,4.25 -3.082706,0 c -0.565164,0 -1.02757,0.45 -1.02757,0.9999999 l 0,9.0000001 c 0,0.55 0.462406,1 1.02757,1 l 3.082706,0 C 21.037594,15.25 21.5,14.8 21.5,14.25 l 0,-9.0000001 C 21.5,4.7 21.037594,4.25 20.472431,4.25 Z"
     id="path4142"
     inkscape:connector-curvature="0"
     sodipodi:nodetypes="sssssssss" />
  <path
     style="fill:#82878c;fill-opacity:1"
     d="m 13.279448,4.25 -3.082706,0 C 9.631579,4.25 9.169173,4.7 9.169173,5.2499999 l 0,9.0000001 c 0,0.55 0.462406,1 1.027569,1 l 3.082706,0 c 0.565164,0 1.02757,-0.45 1.02757,-1 l 0,-9.0000001 C 14.307018,4.7 13.844612,4.25 13.279448,4.25 Z"
     id="path6"
     inkscape:connector-curvature="0"
     sodipodi:nodetypes="sssssssss" />
  <path
     d="m 14.501342,17.170732 0,1.435976 -12.5440249,0 0,-1.435976 L 1,17.170732 1,21 l 0.9573171,0 0,-1.435975 12.5440249,0 0,1.435975 0.957317,0 0,-3.829268 z"
     id="path6-3"
     inkscape:connector-curvature="0"
     sodipodi:nodetypes="ccccccccccccc"
     style="fill:#696e72;fill-opacity:1" />
</svg>
