<?xml version="1.0" encoding="UTF-8" standalone="no"?>
<!-- Generator: Adobe Illustrator 19.1.0, SVG Export Plug-In . SVG Version: 6.00 Build 0)  -->

<svg
   xmlns:dc="http://purl.org/dc/elements/1.1/"
   xmlns:cc="http://creativecommons.org/ns#"
   xmlns:rdf="http://www.w3.org/1999/02/22-rdf-syntax-ns#"
   xmlns:svg="http://www.w3.org/2000/svg"
   xmlns="http://www.w3.org/2000/svg"
   xmlns:sodipodi="http://sodipodi.sourceforge.net/DTD/sodipodi-0.dtd"
   xmlns:inkscape="http://www.inkscape.org/namespaces/inkscape"
   version="1.1"
   x="0px"
   y="0px"
   viewBox="0 0 45 45"
   xml:space="preserve"
   id="svg2"
   inkscape:version="0.91 r13725"
   sodipodi:docname="card.svg"
   width="45"
   height="45"><metadata
     id="metadata12"><rdf:RDF><cc:Work
         rdf:about=""><dc:format>image/svg+xml</dc:format><dc:type
           rdf:resource="http://purl.org/dc/dcmitype/StillImage" /><dc:title /></cc:Work></rdf:RDF></metadata><defs
     id="defs10" /><sodipodi:namedview
     pagecolor="#ffffff"
     bordercolor="#666666"
     borderopacity="1"
     objecttolerance="10"
     gridtolerance="10"
     guidetolerance="10"
     inkscape:pageopacity="0"
     inkscape:pageshadow="2"
     inkscape:window-width="1855"
     inkscape:window-height="1056"
     id="namedview8"
     showgrid="false"
     inkscape:zoom="4.9166667"
     inkscape:cx="64.846758"
     inkscape:cy="2.4968575"
     inkscape:window-x="65"
     inkscape:window-y="24"
     inkscape:window-maximized="1"
     inkscape:current-layer="pages"
     fit-margin-top="1"
     fit-margin-bottom="1"
     fit-margin-left="4.5"
     fit-margin-right="4.5" /><g
     id="image-multiple"
     transform="translate(0.5,22)"><g
       transform="matrix(-1,0,0,-1,-3.966101,22.067797)"
       id="pages"><path
         inkscape:connector-curvature="0"
         d="m -39.466101,23.512242 0,17.11111 c 0,1.344445 1.093724,2.444445 2.430499,2.444445 l 21.139002,0 c 1.336775,0 2.430499,-1.1 2.430499,-2.444445 l 0,-17.11111 c 0,-1.344445 -1.093724,-2.444445 -2.430499,-2.444445 l -21.139002,0 c -1.336775,0 -2.430499,1.1 -2.430499,2.444445 z m 17.253372,6.722222 -5.100881,-3.678889 -4.253372,5.512221 -5.46862,-7.333333 21.139002,0 z"
         id="path6"
         style="fill:#82878c;fill-opacity:1"
         sodipodi:nodetypes="ssssssssscccccc" /><path
         d="m -31.041427,2.8962438 16.575326,0 0,-2.8284468 -16.575326,0 z m -7.424674,10.5133302 24,0 0,-2.828448 -24,0 z m 24,-8.0848946 -24,0 0,2.8284469 24,0 z m 0,13.3413406 0,-2.828447 -24,0 0,2.828447 z"
         id="path4"
         inkscape:connector-curvature="0"
         style="fill:#82878c;fill-opacity:1"
         sodipodi:nodetypes="cccccccccccccccccccc" /></g></g><g
     id="Layer_1"
     transform="translate(0.5,22)" /></svg>