<?xml version="1.0" encoding="UTF-8" standalone="no"?>
<!-- Generator: Adobe Illustrator 19.1.0, SVG Export Plug-In . SVG Version: 6.00 Build 0)  -->

<svg
   xmlns:dc="http://purl.org/dc/elements/1.1/"
   xmlns:cc="http://creativecommons.org/ns#"
   xmlns:rdf="http://www.w3.org/1999/02/22-rdf-syntax-ns#"
   xmlns:svg="http://www.w3.org/2000/svg"
   xmlns="http://www.w3.org/2000/svg"
   xmlns:sodipodi="http://sodipodi.sourceforge.net/DTD/sodipodi-0.dtd"
   xmlns:inkscape="http://www.inkscape.org/namespaces/inkscape"
   version="1.1"
   x="0px"
   y="0px"
   viewBox="0 0 45 45"
   xml:space="preserve"
   id="svg2"
   inkscape:version="0.91 r13725"
   sodipodi:docname="flag.svg"
   width="45"
   height="45"><metadata
     id="metadata12"><rdf:RDF><cc:Work
         rdf:about=""><dc:format>image/svg+xml</dc:format><dc:type
           rdf:resource="http://purl.org/dc/dcmitype/StillImage" /><dc:title /></cc:Work></rdf:RDF></metadata><defs
     id="defs10" /><sodipodi:namedview
     pagecolor="#ffffff"
     bordercolor="#666666"
     borderopacity="1"
     objecttolerance="10"
     gridtolerance="10"
     guidetolerance="10"
     inkscape:pageopacity="0"
     inkscape:pageshadow="2"
     inkscape:window-width="1920"
     inkscape:window-height="1056"
     id="namedview8"
     showgrid="false"
     inkscape:zoom="9.8333338"
     inkscape:cx="20.476903"
     inkscape:cy="24.347553"
     inkscape:window-x="1920"
     inkscape:window-y="24"
     inkscape:window-maximized="1"
     inkscape:current-layer="image-multiple"
     fit-margin-top="8.5"
     fit-margin-bottom="8.5"
     fit-margin-left="1"
     fit-margin-right="1" /><g
     id="image-multiple"
     transform="translate(-1.0000001,17.999998)"><path
       inkscape:connector-curvature="0"
       d="m 23,12.166668 0,-16.3333342 c 0,-1.2833342 -1.05,-2.3333341 -2.333334,-2.3333341 l -16.3333318,0 c -1.2833342,0 -2.3333341,1.0499999 -2.3333341,2.3333341 l 0,16.3333342 c 0,1.283334 1.0499999,2.333334 2.3333341,2.333334 l 16.3333318,0 C 21.95,14.500002 23,13.450002 23,12.166668 Z M 8.4166668,5.7500006 l 2.9166672,3.511668 4.083333,-5.2616675 5.249999,7.0000019 -16.3333318,0 4.0833326,-5.2500024 z"
       id="path6-3"
       style="fill:#82878c;fill-opacity:1" /><path
       d="m 37.429725,11.39286 -12.929725,0 0,2.857142 12.929725,0 z m 7.5,-11.42857097 -20.429725,0 0,2.85714327 20.429725,0 z M 24.5,8.5357158 l 20.429725,0 0,-2.8571412 -20.429725,0 z m 0,-14.2857123 0,2.8571433 20.429725,0 0,-2.8571433 z"
       id="path4"
       inkscape:connector-curvature="0"
       style="fill:#82878c;fill-opacity:1"
       sodipodi:nodetypes="cccccccccccccccccccc" /></g><g
     id="Layer_1"
     transform="translate(-1.0000001,17.999998)" /></svg>