<?xml version="1.0" encoding="UTF-8" standalone="no"?>
<svg
   xmlns:dc="http://purl.org/dc/elements/1.1/"
   xmlns:cc="http://creativecommons.org/ns#"
   xmlns:rdf="http://www.w3.org/1999/02/22-rdf-syntax-ns#"
   xmlns:svg="http://www.w3.org/2000/svg"
   xmlns="http://www.w3.org/2000/svg"
   xmlns:sodipodi="http://sodipodi.sourceforge.net/DTD/sodipodi-0.dtd"
   xmlns:inkscape="http://www.inkscape.org/namespaces/inkscape"
   viewBox="0 0 45 44.999999"
   id="svg2"
   version="1.1"
   inkscape:version="0.91 r13725"
   sodipodi:docname="no-link.svg"
   width="45"
   height="45">
  <metadata
     id="metadata14">
    <rdf:RDF>
      <cc:Work
         rdf:about="">
        <dc:format>image/svg+xml</dc:format>
        <dc:type
           rdf:resource="http://purl.org/dc/dcmitype/StillImage" />
        <dc:title></dc:title>
      </cc:Work>
    </rdf:RDF>
  </metadata>
  <defs
     id="defs12" />
  <sodipodi:namedview
     pagecolor="#ffffff"
     bordercolor="#666666"
     borderopacity="1"
     objecttolerance="10"
     gridtolerance="10"
     guidetolerance="10"
     inkscape:pageopacity="0"
     inkscape:pageshadow="2"
     inkscape:window-width="1855"
     inkscape:window-height="1056"
     id="namedview10"
     showgrid="false"
     fit-margin-left="2"
     fit-margin-right="2"
     fit-margin-top="3.54"
     fit-margin-bottom="3.54"
     inkscape:zoom="9.8333333"
     inkscape:cx="12.101694"
     inkscape:cy="12.523054"
     inkscape:window-x="65"
     inkscape:window-y="24"
     inkscape:window-maximized="1"
     inkscape:current-layer="svg2" />
  <g
     id="g6"
     transform="matrix(2.05,0,0,2.05,-2.1,-3.6400011)"
     style="fill:#82878c;fill-opacity:1">
    <path
       d="m 10,11 -2,2 -1,0 0,-2 3,0 z M 19.64,7.36 22,5 20.5,3.5 3.5,20.5 5,22 l 9,-9 3,0 0,-2 -1,0 2,-2 c 1.103,0 2,0.897 2,2 l 0,2 c 0,1.103 -0.897,2 -2,2 l -4.977,0 c 0.913,1.208 2.347,2 3.977,2 l 1,0 c 2.21,0 4,-1.79 4,-4 l 0,-2 C 22,9.377 21.03,7.987 19.64,7.36 Z M 4.36,16.64 6,15 C 4.897,15 4,14.103 4,13 L 4,11 C 4,9.897 4.897,9 6,9 l 4.977,0 C 10.065,7.792 8.63,7 7,7 L 6,7 C 3.79,7 2,8.79 2,11 l 0,2 c 0,1.623 0.97,3.013 2.36,3.64 z"
       id="path8"
       inkscape:connector-curvature="0"
       style="fill:#82878c;fill-opacity:1" />
  </g>
</svg>
