<?xml version="1.0" encoding="UTF-8" standalone="no"?>
<svg
   xmlns:dc="http://purl.org/dc/elements/1.1/"
   xmlns:cc="http://creativecommons.org/ns#"
   xmlns:rdf="http://www.w3.org/1999/02/22-rdf-syntax-ns#"
   xmlns:svg="http://www.w3.org/2000/svg"
   xmlns="http://www.w3.org/2000/svg"
   xmlns:sodipodi="http://sodipodi.sourceforge.net/DTD/sodipodi-0.dtd"
   xmlns:inkscape="http://www.inkscape.org/namespaces/inkscape"
   height="45"
   viewBox="0 0 22.500002 22.5"
   width="45.000004"
   id="svg2"
   version="1.1"
   inkscape:version="0.91 r13725"
   sodipodi:docname="none.svg"
   style="fill:#000000">
  <metadata
     id="metadata12">
    <rdf:RDF>
      <cc:Work
         rdf:about="">
        <dc:format>image/svg+xml</dc:format>
        <dc:type
           rdf:resource="http://purl.org/dc/dcmitype/StillImage" />
        <dc:title></dc:title>
      </cc:Work>
    </rdf:RDF>
  </metadata>
  <defs
     id="defs10" />
  <sodipodi:namedview
     pagecolor="#ffffff"
     bordercolor="#666666"
     borderopacity="1"
     objecttolerance="10"
     gridtolerance="10"
     guidetolerance="10"
     inkscape:pageopacity="0"
     inkscape:pageshadow="2"
     inkscape:window-width="1855"
     inkscape:window-height="1056"
     id="namedview8"
     showgrid="false"
     fit-margin-left="2.5"
     fit-margin-top="2.5"
     fit-margin-bottom="2.5"
     fit-margin-right="2.5"
     inkscape:zoom="4.9166667"
     inkscape:cx="27.177967"
     inkscape:cy="23.110168"
     inkscape:window-x="65"
     inkscape:window-y="24"
     inkscape:window-maximized="1"
     inkscape:current-layer="svg2" />
  <path
     d="M 11.250001,1.25 C 5.73,1.25 1.25,5.73 1.25,11.249999 c 0,5.52 4.48,10 10.000001,10 5.52,0 10,-4.48 10,-10 0,-5.519999 -4.48,-9.999999 -10,-9.999999 z m 0,17.999999 c -4.42,0 -8.000001,-3.58 -8.000001,-8 C 3.25,9.3999992 3.88,7.7000002 4.94,6.35 l 11.210001,11.209999 c -1.35,1.06 -3.05,1.69 -4.9,1.69 z m 6.31,-3.1 L 6.35,4.94 c 1.350001,-1.06 3.050001,-1.69 4.900001,-1.69 4.42,0 8,3.58 8,7.999999 0,1.85 -0.63,3.55 -1.69,4.9 z"
     id="path6"
     style="fill:#82878c;fill-opacity:1"
     inkscape:connector-curvature="0" />
</svg>
